<?xml version="1.0" standalone="no"?>
<!DOCTYPE svg PUBLIC "-//W3C//DTD SVG 20010904//EN"
 "http://www.w3.org/TR/2001/REC-SVG-20010904/DTD/svg10.dtd">
<svg version="1.0" xmlns="http://www.w3.org/2000/svg"
 width="300.000000pt" height="300.000000pt" viewBox="0 0 300.000000 300.000000"
 preserveAspectRatio="xMidYMid meet">
<metadata>
Created by potrace 1.10, written by Peter Selinger 2001-2011
</metadata>
<g transform="translate(0.000000,300.000000) scale(0.050000,-0.050000)"
fill="#000000" stroke="none">
<path d="M2933 4876 c5 -9 -178 -17 -407 -18 -229 0 -429 -4 -446 -7 -76 -17
-91 -22 -103 -39 -12 -16 -32 -21 -123 -30 -9 -1 -11 -10 -5 -21 10 -16 -67
-54 -87 -42 -4 2 -13 -4 -20 -14 -17 -28 -282 -167 -283 -150 0 8 -9 -1 -21
-20 -11 -19 -30 -35 -42 -35 -12 0 -37 -19 -57 -41 -20 -23 -41 -41 -47 -40
-39 4 -53 -1 -43 -17 6 -10 -3 -23 -19 -29 -17 -7 -30 -26 -30 -44 0 -19 -9
-26 -23 -17 -15 9 -18 5 -8 -10 8 -13 2 -39 -12 -57 -22 -26 -22 -30 -1 -17
18 11 25 6 20 -12 -6 -31 116 -165 153 -168 452 -33 431 -17 431 -319 0 -266
-8 -282 -181 -358 -49 -22 -94 -47 -101 -57 -7 -9 -29 -19 -50 -22 -21 -3 -38
-18 -38 -34 0 -15 -13 -28 -30 -29 -16 0 -28 -11 -26 -23 3 -12 -17 -45 -44
-74 -26 -29 -39 -52 -27 -52 12 0 16 -13 10 -30 -8 -19 0 -30 23 -30 26 -1 28
-4 7 -18 -20 -12 -7 -29 50 -63 42 -26 82 -52 87 -58 6 -6 28 -13 50 -15 231
-26 312 -65 240 -118 -21 -16 -31 -28 -23 -28 8 0 3 -13 -11 -28 -14 -15 -34
-23 -44 -17 -10 6 -11 0 -3 -13 8 -14 -1 -42 -21 -64 -35 -39 -56 -246 -23
-225 8 5 15 -3 15 -18 0 -15 31 -57 69 -94 59 -57 69 -78 61 -137 -11 -84 -32
-114 -219 -311 -61 -65 -111 -126 -111 -136 0 -11 -9 -14 -20 -7 -12 7 -19 6
-17 -4 7 -25 -24 -106 -41 -106 -8 0 -13 -20 -11 -45 2 -25 15 -43 28 -40 13
4 19 -2 13 -11 -52 -84 235 -137 418 -78 53 17 184 37 265 41 36 2 65 10 65
18 0 68 207 10 285 -80 177 -202 361 -365 472 -417 62 -29 140 -72 173 -96 33
-24 86 -46 118 -48 33 -2 74 -18 92 -34 18 -17 41 -30 52 -30 10 0 5 9 -12 20
-18 12 -20 20 -6 20 13 0 28 -8 34 -17 6 -9 114 -17 241 -17 164 -1 226 6 217
22 -8 12 3 9 24 -8 30 -24 34 -24 21 -2 -13 22 -9 26 17 16 20 -8 29 -6 22 6
-7 12 21 20 70 20 45 0 78 7 72 16 -5 9 21 31 59 48 37 17 63 23 57 13 -6 -9
-1 -17 11 -17 11 0 21 14 21 30 0 26 38 40 86 32 10 -2 10 8 2 21 -10 16 -4
20 20 11 20 -8 29 -6 22 6 -7 11 -2 20 11 20 14 0 69 45 123 100 54 55 93 100
87 100 -7 0 2 26 18 59 21 40 24 63 10 72 -12 7 -17 26 -11 41 6 15 1 28 -12
28 -12 0 -17 6 -10 12 7 7 -1 26 -17 42 -16 16 -24 38 -18 48 7 10 0 17 -14
13 -14 -3 -26 5 -26 18 -1 13 -9 31 -19 40 -11 10 -12 5 -2 -13 13 -25 11 -26
-12 -4 -15 14 -28 37 -28 50 0 28 -242 40 -291 14 -16 -9 -45 -8 -63 2 -23 13
-42 9 -63 -12 -48 -48 -348 -41 -413 10 -46 36 -47 39 -10 40 33 0 35 4 10 20
-25 17 -23 22 15 32 25 7 45 21 45 31 0 10 22 41 49 68 27 27 46 49 41 49 -4
0 5 24 20 54 21 39 22 61 7 80 -12 14 -15 26 -7 26 8 0 4 13 -9 29 -14 16 -18
40 -10 53 10 16 7 19 -11 8 -19 -12 -23 -8 -15 15 7 19 0 36 -18 43 -48 19
-20 61 44 66 44 3 51 -1 29 -15 -21 -13 -22 -18 -4 -19 14 0 30 13 37 30 14
38 75 39 106 1 30 -36 104 -31 144 9 22 22 66 30 153 27 68 -3 122 2 121 9 -6
42 6 65 26 52 13 -8 18 -5 10 7 -7 11 0 31 14 43 15 12 25 45 22 72 -3 28 3
50 14 50 11 0 14 8 8 19 -6 10 -4 23 5 29 26 15 16 83 -17 124 -25 31 -25 34
1 20 17 -8 13 -1 -9 17 -35 28 -29 41 15 33 10 -2 12 6 5 16 -13 22 25 51 69
51 17 1 28 12 25 26 -3 14 6 25 21 25 26 0 103 78 104 106 0 8 10 22 21 30 12
8 28 30 35 50 8 20 22 31 32 25 11 -6 18 52 18 139 0 82 -8 145 -16 140 -17
-10 -49 48 -43 76 2 10 -5 11 -17 4 -11 -7 -29 8 -39 34 -10 25 -19 38 -20 29
0 -10 -14 -7 -31 7 -16 13 -24 34 -17 45 8 12 4 15 -9 7 -12 -7 -55 0 -94 17
-40 16 -114 34 -166 40 -52 6 -135 16 -186 22 -51 7 -161 2 -245 -9 -150 -21
-253 -4 -253 41 0 9 -7 16 -15 15 -31 -5 -105 27 -105 45 0 11 -117 14 -282 8
-384 -14 -378 -17 -378 138 0 176 73 198 545 165 63 -4 111 -3 105 3 -15 15
135 102 178 102 21 1 33 7 25 14 -20 20 64 71 90 55 14 -8 18 -5 10 7 -16 26
35 70 57 50 9 -8 10 -4 2 10 -8 15 -2 30 15 37 16 6 40 37 54 69 13 33 30 59
38 59 8 0 15 55 14 122 -1 120 -102 278 -177 278 -10 0 -13 9 -6 20 7 12 6 19
-4 17 -9 -2 -47 2 -86 9 -105 19 -718 28 -707 10z m716 -184 c206 -87 152
-218 -177 -432 l-178 -115 -85 96 c-47 53 -90 91 -96 86 -18 -19 10 -67 39
-67 15 0 28 -9 28 -20 0 -11 -47 -20 -105 -20 -58 0 -193 -6 -300 -13 l-195
-13 0 -349 0 -349 275 14 c588 29 633 22 675 -111 11 -33 19 -33 126 -4 263
71 727 24 836 -85 148 -148 -1 -310 -460 -500 -260 -108 -267 -105 -135 47
129 148 128 157 -10 174 -365 46 -667 -55 -817 -272 -42 -59 -69 -79 -110 -79
-30 0 -67 -14 -81 -31 -29 -35 -102 -31 -114 6 -5 16 12 25 51 25 49 0 70 18
131 109 90 136 238 255 388 312 272 104 825 55 825 -73 0 -41 23 -35 125 33
216 143 174 205 -164 240 -494 51 -1178 -222 -1382 -552 -41 -67 -46 -69 -171
-69 l-128 0 0 237 0 238 155 13 c85 7 227 14 314 15 132 1 183 11 300 62 297
130 271 140 -314 120 l-455 -15 0 500 0 501 335 6 c184 4 342 11 351 17 30 18
114 -14 114 -44 0 -42 1 -41 167 65 81 52 165 105 185 118 21 12 31 29 23 38
-17 18 32 18 -795 0 l-670 -14 -174 -83 c-213 -103 -215 -114 -26 -114 l150 0
0 -530 0 -529 -115 -60 -115 -59 115 -1 115 -1 0 -240 0 -240 160 0 c175 0
205 -23 90 -71 -98 -41 -111 -236 -15 -225 61 7 91 130 46 185 -16 19 -15 29
5 37 49 19 64 -14 64 -139 l0 -124 -90 0 c-116 0 -140 23 -140 128 0 103 -15
149 -50 149 -14 0 -36 13 -50 30 -14 17 -58 30 -102 30 l-78 0 0 167 0 167
-165 13 c-91 7 -215 13 -277 13 -173 0 -159 17 147 171 l285 144 5 420 6 419
-214 13 c-117 7 -270 13 -340 13 -159 0 -158 14 9 94 74 36 260 132 414 214
l280 149 640 18 c352 10 688 20 746 22 58 2 136 -10 173 -25z m16 -1850 c8 -1
15 -12 15 -24 0 -12 -15 -17 -33 -10 -26 10 -28 7 -10 -14 18 -22 12 -33 -28
-51 -29 -13 -47 -16 -41 -7 5 9 -19 13 -54 7 -55 -8 -58 -11 -24 -25 38 -14
38 -15 -5 -17 -25 0 -45 8 -45 20 0 11 -11 19 -25 18 -64 -9 -80 0 -56 30 13
16 39 23 57 17 20 -7 27 -5 17 6 -19 21 113 63 176 56 22 -3 48 -5 56 -6z
m-957 -234 c52 -20 15 -48 -47 -35 -86 17 -141 -69 -92 -145 26 -39 47 -50 84
-43 30 6 46 1 41 -12 -4 -13 11 -32 33 -43 85 -43 61 -70 -63 -70 -139 0 -143
-7 -144 -214 -2 -847 936 -1274 1694 -770 133 87 129 91 -44 41 -734 -209
-1368 174 -1370 828 0 114 0 115 60 115 55 0 60 -6 60 -70 l0 -70 146 0 c80 0
192 12 248 27 l103 26 82 -118 c45 -65 77 -125 72 -134 -28 -45 -241 -168
-358 -208 l-134 -45 44 -46 c224 -241 662 -303 1135 -160 24 7 136 -142 140
-187 3 -28 -290 -208 -426 -262 -542 -217 -1206 21 -1455 522 l-62 125 -143
-11 c-303 -22 -367 -32 -571 -90 -116 -33 -231 -69 -256 -79 -80 -34 -49 7
167 220 231 228 287 319 288 465 l0 95 75 0 c55 0 83 11 102 42 23 38 38 41
125 30 211 -28 217 -72 10 -72 l-148 0 -14 -125 c-17 -151 -54 -246 -126 -323
l-54 -58 66 13 c36 7 151 18 257 26 l191 13 -12 60 c-7 32 -12 72 -12 89 0 23
-16 27 -75 16 l-75 -14 72 66 c52 49 75 90 85 152 12 78 18 85 73 85 33 0 60
9 60 20 0 10 24 25 52 32 l53 14 -62 26 c-138 58 -81 227 90 267 2 1 18 -4 35
-11z m265 -39 c113 -113 -58 -303 -176 -196 -68 61 -41 172 53 224 57 31 66
29 123 -28z m309 -84 c-7 -155 -14 -159 -105 -61 l-80 86 10 -85 c7 -67 3 -85
-21 -85 -24 0 -28 14 -18 63 6 34 12 92 12 130 0 37 9 67 20 67 11 0 20 -12
20 -26 0 -37 113 -142 127 -118 7 10 4 46 -6 80 -12 43 -11 64 6 70 37 13 41
0 35 -121z m207 -25 l55 -50 -6 99 c-5 69 2 101 21 107 22 8 24 -15 12 -118
-18 -167 -21 -168 -101 -82 l-69 74 0 -75 c-1 -46 -11 -75 -26 -75 -18 0 -23
33 -19 115 8 161 21 189 53 115 14 -33 50 -82 80 -110z m311 140 c0 -11 -22
-20 -50 -20 -66 0 -70 -73 -5 -86 l45 -9 -45 -15 c-57 -19 -61 -90 -5 -90 22
0 40 -9 40 -20 0 -11 -29 -20 -65 -20 l-65 0 0 125 c0 134 -6 128 135 152 8 2
15 -6 15 -17z m244 -10 c-3 -11 -27 -17 -52 -14 -54 7 -112 -42 -112 -96 0
-56 59 -105 114 -94 29 5 45 0 40 -14 -4 -12 -32 -25 -62 -28 -135 -16 -186
163 -67 237 66 40 150 46 139 9z m265 11 c6 -10 -13 -21 -44 -25 -58 -6 -102
-196 -45 -196 12 0 17 -9 10 -20 -41 -66 -80 -17 -73 90 6 100 3 110 -35 110
-78 0 -42 38 43 45 47 5 96 10 109 12 13 1 29 -5 35 -16z m-2474 -15 c-69 -11
-77 -79 -10 -92 l45 -9 -45 -15 c-57 -19 -61 -90 -5 -90 22 0 40 -9 40 -20 0
-11 -29 -20 -65 -20 l-65 0 0 130 0 130 80 -3 c60 -2 66 -5 25 -11z m286 -7
c100 -53 27 -210 -107 -232 l-70 -12 -7 133 -7 132 76 0 c42 0 94 -9 115 -21z"/>
<path d="M2655 3025 l-75 -7 1 -144 c1 -142 2 -143 35 -94 18 28 78 97 132
155 l98 105 -58 -3 c-32 -2 -92 -7 -133 -12z"/>
<path d="M3370 2008 c-44 -14 -159 -26 -255 -26 -189 -2 -191 -4 -146 -112
l28 -69 107 32 c150 44 382 171 355 193 -5 4 -45 -4 -89 -18z"/>
<path d="M2831 2549 c-75 -76 -1 -195 97 -157 48 18 42 141 -7 167 -50 27 -52
27 -90 -10z"/>
<path d="M1980 2480 c0 -85 6 -100 39 -100 89 0 131 107 64 167 -70 64 -103
43 -103 -67z"/>
</g>
</svg>
